# This file uses centimeters as units for non-parametric coordinates.

mtllib checkerLoop.mtl
g default
v -0.211970 0.086310 0.038357
v 0.211337 0.086371 0.038357
v -0.249397 0.200771 0.038326
v 0.248767 0.200289 0.038326
v -0.249397 0.197985 -0.038326
v 0.248767 0.198305 -0.038326
v -0.211970 0.084470 -0.038357
v 0.211337 0.083698 -0.038357
v 0.115719 0.243767 -0.039548
v 0.134717 0.024096 -0.038266
v 0.134717 0.027583 0.038266
v 0.115719 0.245317 0.039548
v -0.118580 0.244050 -0.039548
v -0.137304 0.024157 -0.038266
v -0.137304 0.027688 0.038266
v -0.118580 0.245309 0.039548
v -0.174668 0.916567 0.038357
v -0.092612 0.982959 0.038266
v -0.092612 0.980819 -0.038266
v -0.174668 0.915700 -0.038357
v 0.089863 0.982924 0.038266
v 0.089863 0.980712 -0.038266
v 0.173913 0.916443 0.038357
v 0.173913 0.915609 -0.038357
v -0.217979 0.766994 0.038326
v -0.217979 0.763335 -0.038326
v -0.088618 0.742220 -0.039548
v -0.088618 0.747741 0.039548
v 0.085726 0.746602 0.039548
v 0.085726 0.741091 -0.039548
v 0.217315 0.762692 -0.038326
v 0.217315 0.767073 0.038326
v -0.001488 0.812322 -0.037498
v -0.001488 0.811706 0.037498
v -0.001388 0.993377 -0.038893
v -0.001388 0.996620 0.038893
v -0.000787 0.189293 0.037498
v -0.000787 0.185518 -0.037498
v -0.000660 0.012890 -0.038893
v -0.000660 0.016174 0.038893
v -0.192717 0.130644 0.079025
v -0.128288 0.101461 0.081727
v -0.142316 0.218611 0.069713
v -0.199364 0.227255 0.081276
v 0.126273 0.101542 0.081727
v 0.140228 0.218285 0.069713
v 0.191197 0.130394 0.079025
v 0.197952 0.228892 0.081276
v -0.000981 0.079769 0.080081
v -0.001018 0.156647 0.082985
v -0.124568 0.784147 0.069713
v -0.178629 0.773664 0.081276
v 0.177191 0.773515 0.081276
v 0.122133 0.784258 0.069713
v -0.095590 0.933828 0.081727
v -0.153695 0.900200 0.079025
v 0.152086 0.899891 0.079025
v 0.093220 0.933467 0.081727
v -0.001405 0.871141 0.082985
v -0.001400 0.953974 0.080081
v -0.199364 0.209604 -0.081276
v -0.142316 0.182468 -0.069713
v -0.128288 0.068255 -0.081727
v -0.192717 0.095933 -0.079025
v 0.140228 0.182470 -0.069713
v 0.197952 0.200552 -0.081276
v 0.191197 0.096270 -0.079025
v 0.126273 0.067586 -0.081727
v -0.001018 0.123141 -0.082985
v -0.000981 0.044305 -0.080081
v -0.178629 0.769438 -0.081276
v -0.124568 0.781919 -0.069713
v 0.122133 0.781501 -0.069713
v 0.177191 0.769711 -0.081276
v -0.153695 0.866951 -0.079025
v -0.095590 0.899552 -0.081727
v 0.093220 0.899158 -0.081727
v 0.152086 0.866093 -0.079025
v -0.001400 0.922963 -0.080081
v -0.001405 0.834123 -0.082985
vt 0.113778 0.119702
vt 0.243111 0.090036
vt 0.214951 0.209123
vt 0.100434 0.217911
vt 0.150008 0.918622
vt 0.314725 0.986112
vt 0.314725 0.983937
vt 0.150008 0.917741
vt 0.100434 0.199968
vt 0.214951 0.172383
vt 0.243111 0.056281
vt 0.113778 0.084417
vt 0.075129 0.072764
vt 0.225013 0.011453
vt 0.225013 0.015043
vt 0.075129 0.074635
vt 0.924864 0.074697
vt 0.924864 0.071979
vt 1.000000 0.188482
vt 1.000000 0.190498
vt 0.000000 0.190988
vt 0.000000 0.188156
vt 0.782122 0.172385
vt 0.897994 0.190766
vt 0.884435 0.084760
vt 0.754109 0.055601
vt 0.771058 0.014936
vt 0.771058 0.011392
vt 0.782122 0.208792
vt 0.754109 0.090118
vt 0.884435 0.119448
vt 0.897994 0.219574
vt 0.681020 0.983828
vt 0.681020 0.986077
vt 0.849739 0.918496
vt 0.849739 0.917649
vt 0.498588 0.112075
vt 0.498662 0.031935
vt 0.499307 -0.000000
vt 0.499307 0.003339
vt 0.498662 0.067986
vt 0.498588 0.146135
vt 0.262598 0.234983
vt 0.262598 0.236263
vt 0.499053 0.179321
vt 0.499053 0.175483
vt 0.250578 0.784012
vt 0.142057 0.773357
vt 0.322743 0.741392
vt 0.322743 0.747004
vt 0.142057 0.769060
vt 0.250578 0.781748
vt 0.063066 0.766576
vt 0.063066 0.762857
vt 0.732923 0.234696
vt 0.732923 0.236271
vt 0.672715 0.745847
vt 0.672715 0.740244
vt 0.856319 0.773204
vt 0.745798 0.784125
vt 0.936865 0.762203
vt 0.936865 0.766656
vt 0.745798 0.781323
vt 0.856319 0.769338
vt 0.192109 0.868186
vt 0.308748 0.901327
vt 0.308748 0.936169
vt 0.192109 0.901985
vt 0.687759 0.900925
vt 0.805925 0.867313
vt 0.805925 0.901670
vt 0.687759 0.935802
vt 0.497646 0.812653
vt 0.497646 0.812027
vt 0.497821 0.925124
vt 0.497812 0.834814
vt 0.497846 1.000000
vt 0.497846 0.996702
vt 0.497812 0.872445
vt 0.497821 0.956648
vn -0.003745 0.046819 0.998896
vn 0.142322 0.012638 0.989740
vn -0.359104 -0.182210 0.915338
vn -0.338742 0.009309 0.940833
vn -0.371059 0.886667 0.275928
vn -0.414443 0.909728 -0.025151
vn -0.601983 0.771528 0.205821
vn -0.625263 0.780264 -0.015310
vn 0.192416 -0.000984 -0.981313
vn 0.133772 0.016162 -0.990880
vn 0.095658 0.051267 -0.994093
vn -0.001024 0.046471 -0.998919
vn -0.293109 -0.925958 -0.238094
vn -0.319238 -0.946882 0.038749
vn -0.588856 -0.784392 -0.194880
vn -0.622764 -0.781929 0.027409
vn 0.950268 -0.311290 0.009452
vn 0.999944 -0.010564 -0.000192
vn 0.950268 -0.311290 0.009452
vn 0.999975 -0.007124 -0.000302
vn -0.950055 -0.311940 0.009411
vn -0.950055 -0.311940 0.009411
vn -0.999936 -0.011323 -0.000203
vn -0.999979 -0.006492 -0.000357
vn -0.188433 0.000061 -0.982086
vn -0.092058 0.052992 -0.994343
vn -0.137507 0.014111 -0.990400
vn 0.002673 0.046697 -0.998906
vn 0.291258 -0.926799 -0.237092
vn 0.579566 -0.791840 -0.192593
vn 0.316755 -0.947650 0.040313
vn 0.611064 -0.790943 0.031795
vn 0.003315 0.046865 0.998896
vn 0.353830 -0.182831 0.917266
vn -0.139745 0.012927 0.990103
vn 0.332922 0.009339 0.942908
vn 0.368255 0.887522 0.276935
vn 0.593683 0.777732 0.206574
vn 0.410967 0.911295 -0.025445
vn 0.616315 0.787344 -0.015650
vn 0.133772 0.016162 -0.990880
vn 0.000131 0.044934 -0.998990
vn -0.001024 0.046471 -0.998919
vn 0.000200 0.044933 -0.998990
vn -0.319238 -0.946882 0.038749
vn -0.293109 -0.925958 -0.238094
vn -0.000306 -0.999032 0.043980
vn -0.000476 -0.963268 -0.268540
vn 0.142322 0.012638 0.989740
vn -0.003745 0.046819 0.998896
vn -0.000045 0.044837 0.998994
vn -0.000022 0.044837 0.998994
vn 0.437085 0.898941 -0.029365
vn 0.000534 0.999436 -0.033584
vn 0.356013 0.792351 -0.495413
vn 0.000186 0.807778 -0.589487
vn -0.338742 0.009309 0.940833
vn 0.142322 0.012638 0.989740
vn 0.190380 -0.013317 0.981620
vn 0.149340 -0.020997 0.988563
vn 0.927039 -0.049226 -0.371719
vn 0.942359 -0.050833 -0.330719
vn 0.938859 -0.051052 0.340497
vn 0.935954 -0.050756 0.348446
vn 0.133772 0.016162 -0.990880
vn 0.192416 -0.000984 -0.981313
vn 0.150053 -0.022772 -0.988416
vn 0.194369 -0.012641 -0.980847
vn -0.999936 -0.011323 -0.000203
vn -0.999979 -0.006492 -0.000357
vn -0.994829 0.101503 -0.003548
vn -0.994358 0.106009 -0.003667
vn -0.924216 -0.049323 -0.378671
vn -0.936554 -0.051167 0.346770
vn -0.939915 -0.050933 -0.337588
vn -0.932998 -0.050813 0.356276
vn 0.332922 0.009339 0.942908
vn -0.187612 -0.013259 0.982154
vn -0.139745 0.012927 0.990103
vn -0.147258 -0.020968 0.988876
vn 0.999944 -0.010564 -0.000192
vn 0.994854 0.101248 -0.003775
vn 0.999975 -0.007124 -0.000302
vn 0.994289 0.106651 -0.003948
vn -0.137507 0.014111 -0.990400
vn -0.149150 -0.022436 -0.988560
vn -0.188433 0.000061 -0.982086
vn 0.272181 0.029935 -0.961780
vn -0.994829 0.101503 -0.003548
vn -0.994358 0.106009 -0.003667
vn -0.961193 0.275756 -0.008137
vn -0.961193 0.275756 -0.008137
vn 0.194369 -0.012641 -0.980847
vn 0.107237 -0.071870 -0.991632
vn 0.150053 -0.022772 -0.988416
vn -0.120753 0.211293 -0.969935
vn 0.190380 -0.013317 0.981620
vn 0.149340 -0.020997 0.988563
vn 0.099981 -0.054629 0.993489
vn -0.008004 -0.038826 0.999214
vn 0.272181 0.029935 -0.961780
vn -0.149150 -0.022436 -0.988560
vn 0.394741 0.200573 -0.896633
vn 0.120393 0.211497 -0.969935
vn 0.994854 0.101248 -0.003775
vn 0.961113 0.275997 -0.009382
vn 0.994289 0.106651 -0.003948
vn 0.961113 0.275997 -0.009382
vn -0.187612 -0.013259 0.982154
vn -0.098504 -0.054508 0.993643
vn -0.147258 -0.020968 0.988876
vn 0.007738 -0.038946 0.999211
vn 0.609575 -0.792327 0.025220
vn 0.609575 -0.792327 0.025220
vn 0.516966 -0.721937 0.459949
vn 0.501992 -0.706913 0.498275
vn 0.150053 -0.022772 -0.988416
vn -0.120753 0.211293 -0.969935
vn -0.040041 -0.038432 -0.998459
vn 0.000307 0.235803 -0.971801
vn -0.414443 0.909728 -0.025151
vn -0.371059 0.886667 0.275928
vn -0.142162 0.989242 -0.034510
vn -0.142162 0.989242 -0.034510
vn 0.149340 -0.020997 0.988563
vn -0.036372 -0.034596 0.998739
vn -0.008004 -0.038826 0.999214
vn -0.036372 -0.034596 0.998739
vn -0.615627 -0.787640 0.025019
vn -0.520453 -0.718181 0.461893
vn -0.615627 -0.787640 0.025019
vn -0.504070 -0.702162 0.502873
vn -0.147258 -0.020968 0.988876
vn 0.007738 -0.038946 0.999211
vn 0.036144 -0.034706 0.998744
vn 0.036144 -0.034706 0.998744
vn 0.410967 0.911295 -0.025445
vn 0.142869 0.989124 -0.034971
vn 0.368255 0.887522 0.276935
vn 0.142869 0.989124 -0.034971
vn -0.149150 -0.022436 -0.988560
vn 0.039731 -0.038485 -0.998469
vn 0.120393 0.211497 -0.969935
vn 0.000307 0.235803 -0.971801
vn 0.000186 0.807778 -0.589487
vn 0.000534 0.999436 -0.033584
vn -0.357258 0.790188 -0.497966
vn -0.440106 0.897411 -0.031005
vn 0.000200 0.044933 -0.998990
vn 0.000131 0.044934 -0.998990
vn 0.002673 0.046697 -0.998906
vn -0.137507 0.014111 -0.990400
vn -0.000476 -0.963268 -0.268540
vn 0.291258 -0.926799 -0.237092
vn -0.000306 -0.999032 0.043980
vn 0.316755 -0.947650 0.040313
vn -0.000022 0.044837 0.998994
vn 0.003315 0.046865 0.998896
vn -0.000045 0.044837 0.998994
vn -0.139745 0.012927 0.990103
vn -0.138308 -0.517287 0.844562
vn -0.168301 -0.515078 0.840458
vn -0.477372 -0.380333 0.792125
vn -0.359104 -0.182210 0.915338
vn -0.477372 -0.380333 0.792125
vn -0.359104 -0.182210 0.915338
vn -0.699798 -0.007087 0.714306
vn -0.338742 0.009309 0.940833
vn 0.137778 -0.517153 0.844731
vn 0.473583 -0.378145 0.795440
vn 0.167775 -0.515104 0.840547
vn 0.353830 -0.182831 0.917266
vn 0.473583 -0.378145 0.795440
vn 0.693325 -0.008157 0.720579
vn 0.353830 -0.182831 0.917266
vn 0.332922 0.009339 0.942908
vn 0.000150 -0.521474 0.853267
vn -0.000169 -0.521475 0.853267
vn -0.138308 -0.517287 0.844562
vn -0.168301 -0.515078 0.840458
vn 0.293044 0.704980 0.645855
vn 0.293044 0.704980 0.645855
vn 0.293044 0.704980 0.645855
vn 0.293044 0.704980 0.645855
vn 0.938859 -0.051052 0.340497
vn 0.935954 -0.050756 0.348446
vn 0.707979 -0.031629 0.705525
vn 0.707979 -0.031629 0.705524
vn -0.699798 -0.007087 0.714306
vn -0.338742 0.009309 0.940833
vn -0.712614 0.055620 0.699348
vn -0.720009 0.068362 0.690589
vn 0.693325 -0.008157 0.720579
vn 0.706412 0.055429 0.705627
vn 0.332922 0.009339 0.942908
vn 0.713521 0.067923 0.697334
vn -0.936554 -0.051167 0.346770
vn -0.700537 -0.031565 0.712918
vn -0.932998 -0.050813 0.356276
vn -0.700537 -0.031565 0.712918
vn -0.371059 0.886667 0.275928
vn -0.601983 0.771528 0.205821
vn -0.311914 0.670651 0.673006
vn -0.471044 0.644365 0.602421
vn -0.712614 0.055620 0.699348
vn -0.720009 0.068362 0.690589
vn -0.783798 0.198462 0.588450
vn -0.783798 0.198462 0.588450
vn 0.706412 0.055429 0.705627
vn 0.776077 0.197632 0.598871
vn 0.713521 0.067923 0.697334
vn 0.776077 0.197632 0.598871
vn 0.368255 0.887522 0.276935
vn 0.309430 0.669756 0.675041
vn 0.593683 0.777732 0.206574
vn 0.462825 0.645214 0.607859
vn 0.516966 -0.721937 0.459949
vn 0.501992 -0.706913 0.498275
vn 0.322819 -0.509020 0.797927
vn 0.322819 -0.509020 0.797927
vn 0.000725 0.679572 0.733608
vn -0.371059 0.886667 0.275928
vn 0.000768 0.679572 0.733609
vn -0.311914 0.670651 0.673006
vn 0.000725 0.679572 0.733608
vn 0.000768 0.679572 0.733609
vn 0.368255 0.887522 0.276935
vn 0.309430 0.669756 0.675041
vn -0.520453 -0.718181 0.461893
vn -0.320877 -0.504144 0.801796
vn -0.504070 -0.702162 0.502873
vn -0.320877 -0.504144 0.801796
vn 0.000150 -0.521474 0.853267
vn 0.137778 -0.517153 0.844731
vn -0.000169 -0.521475 0.853267
vn 0.167775 -0.515104 0.840547
vn -0.292620 0.702858 0.648355
vn -0.292620 0.702858 0.648355
vn -0.292620 0.702858 0.648355
vn -0.292620 0.702858 0.648355
vn -0.293109 -0.925958 -0.238094
vn -0.588856 -0.784392 -0.194880
vn -0.229141 -0.725029 -0.649482
vn -0.438291 -0.675252 -0.593242
vn -0.740545 -0.150064 -0.655037
vn -0.705402 0.001343 -0.708806
vn -0.740545 -0.150065 -0.655037
vn -0.703201 0.008723 -0.710937
vn 0.739357 -0.155887 -0.655019
vn 0.739357 -0.155887 -0.655019
vn 0.696861 0.005919 -0.717182
vn 0.697266 0.004695 -0.716797
vn 0.291258 -0.926799 -0.237092
vn 0.228948 -0.726106 -0.648347
vn 0.579566 -0.791840 -0.192593
vn 0.432412 -0.675609 -0.597137
vn 0.356013 0.792351 -0.495413
vn 0.000186 0.807778 -0.589487
vn 0.184013 0.485879 -0.854436
vn 0.184013 0.485879 -0.854436
vn -0.000476 -0.963268 -0.268540
vn -0.293109 -0.925958 -0.238094
vn -0.001451 -0.742622 -0.669709
vn -0.229141 -0.725029 -0.649482
vn -0.705402 0.001343 -0.708806
vn -0.703244 0.055482 -0.708781
vn -0.703201 0.008723 -0.710937
vn -0.707098 0.068261 -0.703813
vn 0.942359 -0.050833 -0.330719
vn 0.927039 -0.049226 -0.371719
vn 0.716162 -0.031130 -0.697239
vn 0.716162 -0.031130 -0.697239
vn -0.939915 -0.050933 -0.337588
vn -0.708693 -0.031085 -0.704832
vn -0.924216 -0.049323 -0.378671
vn -0.708693 -0.031085 -0.704832
vn 0.696861 0.005919 -0.717182
vn 0.697266 0.004695 -0.716797
vn 0.695266 0.054260 -0.716701
vn 0.272181 0.029935 -0.961780
vn -0.506148 0.388797 -0.769839
vn -0.613037 0.316176 -0.724029
vn -0.703244 0.055482 -0.708781
vn -0.707098 0.068261 -0.703813
vn -0.167801 0.486874 -0.857203
vn -0.120753 0.211293 -0.969935
vn -0.506148 0.388797 -0.769839
vn -0.613037 0.316176 -0.724029
vn 0.167692 0.485691 -0.857895
vn 0.498374 0.387713 -0.775436
vn 0.120393 0.211497 -0.969935
vn 0.394741 0.200573 -0.896633
vn 0.498374 0.387713 -0.775436
vn 0.695266 0.054260 -0.716701
vn 0.394741 0.200573 -0.896633
vn 0.272181 0.029935 -0.961780
vn 0.000635 0.488408 -0.872615
vn 0.000307 0.235803 -0.971801
vn -0.167801 0.486874 -0.857203
vn -0.120753 0.211293 -0.969935
vn 0.338627 -0.645092 -0.684973
vn 0.338627 -0.645092 -0.684973
vn 0.338627 -0.645092 -0.684973
vn 0.338627 -0.645092 -0.684973
vn -0.339223 -0.639729 -0.689692
vn -0.339223 -0.639729 -0.689692
vn -0.339223 -0.639729 -0.689692
vn -0.339224 -0.639729 -0.689692
vn 0.000635 0.488408 -0.872615
vn 0.167692 0.485691 -0.857895
vn 0.000307 0.235803 -0.971801
vn 0.120393 0.211497 -0.969935
vn -0.357258 0.790188 -0.497966
vn -0.184610 0.486219 -0.854114
vn 0.000186 0.807778 -0.589487
vn -0.184610 0.486219 -0.854114
vn -0.000476 -0.963268 -0.268540
vn -0.001451 -0.742622 -0.669709
vn 0.291258 -0.926799 -0.237092
vn 0.228948 -0.726106 -0.648347
s 1
g checkerLoop:pCube1
usemtl checkerLoop:blinn1SG
f 42/2/1 43/3/2 41/1/3
f 41/1/3 43/3/2 44/4/4
s 2
f 18/6/5 19/7/6 17/5/7
f 17/5/7 19/7/6 20/8/8
s 3
f 61/9/9 62/10/10 64/12/11
f 64/12/11 62/10/10 63/11/12
s 4
f 14/14/13 15/15/14 7/13/15
f 7/13/15 15/15/14 1/16/16
s 5
f 8/18/17 6/19/18 2/17/19
f 2/17/19 6/19/18 4/20/20
s 6
f 7/13/21 1/16/22 5/22/23
f 5/22/23 1/16/22 3/21/24
s 7
f 66/24/25 67/25/26 65/23/27
f 65/23/27 67/25/26 68/26/28
s 8
f 10/28/29 8/18/30 11/27/31
f 11/27/31 8/18/30 2/17/32
s 9
f 45/30/33 47/31/34 46/29/35
f 46/29/35 47/31/34 48/32/36
s 10
f 21/34/37 23/35/38 22/33/39
f 22/33/39 23/35/38 24/36/40
s 11
f 62/10/41 69/37/42 63/11/43
f 63/11/43 69/37/42 70/38/44
s 12
f 15/15/45 14/14/46 40/40/47
f 40/40/47 14/14/46 39/39/48
s 13
f 43/3/49 42/2/50 50/42/51
f 50/42/51 42/2/50 49/41/52
s 14
f 16/44/53 37/45/54 13/43/55
f 13/43/55 37/45/54 38/46/56
s 15
f 44/4/57 43/3/58 52/48/59
f 52/48/59 43/3/58 51/47/60
s 16
f 13/43/61 27/49/62 16/44/63
f 16/44/63 27/49/62 28/50/64
s 17
f 62/10/65 61/9/66 72/52/67
f 72/52/67 61/9/66 71/51/68
s 18
f 5/22/69 3/21/70 26/54/71
f 26/54/71 3/21/70 25/53/72
s 19
f 9/55/73 12/56/74 30/58/75
f 30/58/75 12/56/74 29/57/76
s 20
f 48/32/77 53/59/78 46/29/79
f 46/29/79 53/59/78 54/60/80
s 21
f 6/19/81 31/61/82 4/20/83
f 4/20/83 31/61/82 32/62/84
s 22
f 65/23/85 73/63/86 66/24/87
f 66/24/87 73/63/86 74/64/88
s 23
f 26/54/89 25/53/90 20/8/91
f 20/8/91 25/53/90 17/5/92
s 24
f 71/51/93 75/65/94 72/52/95
f 72/52/95 75/65/94 76/66/96
s 25
f 52/48/97 51/47/98 56/68/99
f 56/68/99 51/47/98 55/67/100
s 26
f 74/64/101 73/63/102 78/70/103
f 78/70/103 73/63/102 77/69/104
s 27
f 31/61/105 24/36/106 32/62/107
f 32/62/107 24/36/106 23/35/108
s 28
f 53/59/109 57/71/110 54/60/111
f 54/60/111 57/71/110 58/72/112
s 29
f 27/49/113 33/73/114 28/50/115
f 28/50/115 33/73/114 34/74/116
s 30
f 72/52/117 76/66/118 80/76/119
f 80/76/119 76/66/118 79/75/120
s 31
f 19/7/121 18/6/122 35/78/123
f 35/78/123 18/6/122 36/77/124
s 32
f 51/47/125 59/79/126 55/67/127
f 55/67/127 59/79/126 60/80/128
s 33
f 30/58/129 29/57/130 33/73/131
f 33/73/131 29/57/130 34/74/132
s 34
f 54/60/133 58/72/134 59/79/135
f 59/79/135 58/72/134 60/80/136
s 35
f 22/33/137 35/78/138 21/34/139
f 21/34/139 35/78/138 36/77/140
s 36
f 73/63/141 80/76/142 77/69/143
f 77/69/143 80/76/142 79/75/144
s 37
f 38/46/145 37/45/146 9/55/147
f 9/55/147 37/45/146 12/56/148
s 38
f 70/38/149 69/37/150 68/26/151
f 68/26/151 69/37/150 65/23/152
s 39
f 39/39/153 10/28/154 40/40/155
f 40/40/155 10/28/154 11/27/156
s 40
f 49/41/157 45/30/158 50/42/159
f 50/42/159 45/30/158 46/29/160
s 41
f 15/15/161 42/2/162 1/16/163
f 1/16/163 42/2/162 41/1/164
s 42
f 1/16/165 41/1/166 3/21/167
f 3/21/167 41/1/166 44/4/168
s 43
f 11/27/169 2/17/170 45/30/171
f 45/30/171 2/17/170 47/31/172
s 44
f 2/17/173 4/20/174 47/31/175
f 47/31/175 4/20/174 48/32/176
s 45
f 40/40/177 49/41/178 15/15/179
f 15/15/179 49/41/178 42/2/180
s 46
f 16/44/181 43/3/182 37/45/183
f 37/45/183 43/3/182 50/42/184
s 47
f 16/44/185 28/50/186 43/3/187
f 43/3/187 28/50/186 51/47/188
s 48
f 3/21/189 44/4/190 25/53/191
f 25/53/191 44/4/190 52/48/192
s 49
f 4/20/193 32/62/194 48/32/195
f 48/32/195 32/62/194 53/59/196
s 50
f 12/56/197 46/29/198 29/57/199
f 29/57/199 46/29/198 54/60/200
s 51
f 18/6/201 17/5/202 55/67/203
f 55/67/203 17/5/202 56/68/204
s 52
f 25/53/205 52/48/206 17/5/207
f 17/5/207 52/48/206 56/68/208
s 53
f 32/62/209 23/35/210 53/59/211
f 53/59/211 23/35/210 57/71/212
s 54
f 21/34/213 58/72/214 23/35/215
f 23/35/215 58/72/214 57/71/216
s 55
f 28/50/217 34/74/218 51/47/219
f 51/47/219 34/74/218 59/79/220
s 56
f 36/77/221 18/6/222 60/80/223
f 60/80/223 18/6/222 55/67/224
s 57
f 36/77/225 60/80/226 21/34/227
f 21/34/227 60/80/226 58/72/228
s 58
f 29/57/229 54/60/230 34/74/231
f 34/74/231 54/60/230 59/79/232
s 59
f 40/40/233 11/27/234 49/41/235
f 49/41/235 11/27/234 45/30/236
s 60
f 12/56/237 37/45/238 46/29/239
f 46/29/239 37/45/238 50/42/240
s 61
f 14/14/241 7/13/242 63/11/243
f 63/11/243 7/13/242 64/12/244
s 62
f 7/13/245 5/22/246 64/12/247
f 64/12/247 5/22/246 61/9/248
s 63
f 8/18/249 67/25/250 6/19/251
f 6/19/251 67/25/250 66/24/252
s 64
f 10/28/253 68/26/254 8/18/255
f 8/18/255 68/26/254 67/25/256
s 65
f 13/43/257 38/46/258 62/10/259
f 62/10/259 38/46/258 69/37/260
s 66
f 39/39/261 14/14/262 70/38/263
f 70/38/263 14/14/262 63/11/264
s 67
f 5/22/265 26/54/266 61/9/267
f 61/9/267 26/54/266 71/51/268
s 68
f 27/49/269 13/43/270 72/52/271
f 72/52/271 13/43/270 62/10/272
s 69
f 30/58/273 73/63/274 9/55/275
f 9/55/275 73/63/274 65/23/276
s 70
f 6/19/277 66/24/278 31/61/279
f 31/61/279 66/24/278 74/64/280
s 71
f 20/8/281 75/65/282 26/54/283
f 26/54/283 75/65/282 71/51/284
s 72
f 19/7/285 76/66/286 20/8/287
f 20/8/287 76/66/286 75/65/288
s 73
f 22/33/289 24/36/290 77/69/291
f 77/69/291 24/36/290 78/70/292
s 74
f 24/36/293 31/61/294 78/70/295
f 78/70/295 31/61/294 74/64/296
s 75
f 35/78/297 79/75/298 19/7/299
f 19/7/299 79/75/298 76/66/300
s 76
f 27/49/301 72/52/302 33/73/303
f 33/73/303 72/52/302 80/76/304
s 77
f 30/58/305 33/73/306 73/63/307
f 73/63/307 33/73/306 80/76/308
s 78
f 35/78/309 22/33/310 79/75/311
f 79/75/311 22/33/310 77/69/312
s 79
f 9/55/313 65/23/314 38/46/315
f 38/46/315 65/23/314 69/37/316
s 80
f 39/39/317 70/38/318 10/28/319
f 10/28/319 70/38/318 68/26/320
