# This file uses centimeters as units for non-parametric coordinates.

v -0.014529 0.346609 0.622633
v -0.014529 0.346609 -0.622633
v -0.014529 0.352609 0.622633
v -0.014529 0.352609 -0.622633
v -0.038648 0.352609 0.622633
v -0.038648 0.352609 -0.622633
v -0.038648 0.346609 0.622633
v -0.038648 0.346609 -0.622633
v 0.024825 0.346609 -0.001793
v 0.024825 0.352609 -0.001793
v -0.078002 0.352609 -0.001792
v -0.078002 0.346609 -0.001792
v -0.014529 0.346609 -0.041001
v -0.014529 0.352609 -0.041001
v -0.038648 0.352609 -0.041001
v -0.038648 0.346609 -0.041001
v -0.014529 0.346609 0.038049
v -0.014529 0.352609 0.038049
v -0.038648 0.352609 0.038049
v -0.038648 0.346609 0.038049
v -0.649222 0.339692 0.012060
v 0.596045 0.339692 0.012060
v -0.649222 0.345692 0.012060
v 0.596045 0.345692 0.012060
v -0.649222 0.345692 -0.012060
v 0.596045 0.345692 -0.012060
v -0.649222 0.339692 -0.012060
v 0.596045 0.339692 -0.012060
v -0.024796 0.339692 0.051413
v -0.024796 0.345692 0.051413
v -0.024796 0.345692 -0.051413
v -0.024796 0.339692 -0.051413
v 0.014412 0.339692 0.012060
v 0.014412 0.345692 0.012060
v 0.014412 0.345692 -0.012060
v 0.014412 0.339692 -0.012060
v -0.064637 0.339692 0.012060
v -0.064637 0.345692 0.012060
v -0.064637 0.345692 -0.012060
v -0.064637 0.339692 -0.012060
vt 0.509685 0.000000
vt 0.509685 0.469445
vt 0.509685 0.469445
vt 0.509685 0.000000
vt 0.490315 0.469445
vt 0.490315 0.000000
vt 0.490315 0.469445
vt 0.490315 0.000000
vt 0.509685 1.000000
vt 0.490315 1.000000
vt 0.490315 1.000000
vt 0.509685 1.000000
vt 0.541287 0.501439
vt 0.509685 0.532925
vt 0.509685 0.532925
vt 0.541287 0.501439
vt 0.458713 0.501439
vt 0.490315 0.532925
vt 0.458713 0.501439
vt 0.490315 0.532925
vt -0.000000 0.490315
vt 0.469445 0.490315
vt 0.469445 0.490315
vt -0.000000 0.490315
vt 0.469445 0.509685
vt -0.000000 0.509685
vt 0.469445 0.509685
vt -0.000000 0.509685
vt 1.000000 0.490315
vt 1.000000 0.509685
vt 1.000000 0.509685
vt 1.000000 0.490315
vt 0.501439 0.458713
vt 0.532925 0.490315
vt 0.532925 0.490315
vt 0.501439 0.458713
vt 0.501439 0.541287
vt 0.532925 0.509685
vt 0.501439 0.541287
vt 0.532925 0.509685
vn 1.000000 0.000000 -0.000000
vn 0.998020 0.000000 0.062898
vn 1.000000 0.000000 -0.000000
vn 0.998020 0.000000 0.062898
vn 0.000000 1.000000 0.000000
vn 0.000000 1.000000 0.000000
vn 0.000000 1.000000 0.000000
vn 0.000000 1.000000 0.000000
vn -1.000000 0.000000 0.000000
vn -0.998020 0.000000 0.062898
vn -1.000000 0.000000 0.000000
vn -0.998020 0.000000 0.062898
vn 0.000000 -1.000000 0.000000
vn 0.000000 -1.000000 -0.000000
vn 0.000000 -1.000000 -0.000000
vn 0.000000 -1.000000 -0.000000
vn 0.000000 0.000000 -1.000000
vn 0.000000 0.000000 -1.000000
vn 0.000000 0.000000 -1.000000
vn 0.000000 0.000000 -1.000000
vn 0.000000 0.000000 1.000000
vn 0.000000 0.000000 1.000000
vn 0.000000 0.000000 1.000000
vn 0.000000 0.000000 1.000000
vn 1.000000 0.000000 -0.000000
vn 0.997997 0.000000 -0.063260
vn 1.000000 0.000000 0.000000
vn 0.997997 0.000000 -0.063260
vn 0.000000 1.000000 0.000000
vn 0.000000 1.000000 0.000000
vn 0.000000 1.000000 0.000000
vn 0.000000 1.000000 0.000000
vn -1.000000 0.000000 0.000004
vn -1.000000 0.000000 0.000004
vn -0.997997 0.000000 -0.063260
vn -0.997997 0.000000 -0.063260
vn 0.000000 -1.000000 0.000001
vn 0.000000 -1.000000 0.000001
vn 0.000000 -1.000000 0.000000
vn 0.000000 -1.000000 -0.000000
vn 1.000000 0.000000 0.000000
vn 1.000000 0.000000 0.000000
vn 0.000000 1.000000 0.000000
vn 0.000000 1.000000 0.000000
vn -1.000000 0.000000 0.000000
vn -1.000000 0.000000 0.000000
vn 0.000000 -1.000000 0.000000
vn 0.000000 -1.000000 0.000000
vn 0.000000 0.000000 1.000000
vn -0.062898 0.000000 0.998020
vn 0.000000 0.000000 1.000000
vn -0.062898 0.000000 0.998020
vn 0.000000 1.000000 0.000000
vn 0.000000 1.000000 0.000000
vn 0.000000 1.000000 0.000000
vn 0.000000 1.000000 0.000000
vn 0.000000 0.000000 -1.000000
vn -0.062898 0.000000 -0.998020
vn 0.000000 0.000000 -1.000000
vn -0.062898 0.000000 -0.998020
vn 0.000000 -1.000000 0.000000
vn 0.000000 -1.000000 0.000000
vn 0.000000 -1.000000 0.000000
vn 0.000000 -1.000000 0.000000
vn 1.000000 0.000000 0.000000
vn 1.000000 0.000000 0.000000
vn 1.000000 0.000000 0.000000
vn 1.000000 0.000000 0.000000
vn -1.000000 0.000000 0.000000
vn -1.000000 0.000000 0.000000
vn -1.000000 0.000000 0.000000
vn -1.000000 0.000000 0.000000
vn 0.000000 0.000000 1.000000
vn 0.063260 0.000000 0.997997
vn 0.000000 0.000000 1.000000
vn 0.063260 0.000000 0.997997
vn 0.000000 1.000000 0.000000
vn 0.000000 1.000000 0.000000
vn 0.000000 1.000000 0.000000
vn 0.000000 1.000000 0.000000
vn 0.000000 0.000000 -1.000000
vn 0.000000 0.000000 -1.000000
vn 0.063260 0.000000 -0.997997
vn 0.063260 0.000000 -0.997997
vn 0.000000 -1.000000 0.000000
vn 0.000000 -1.000000 0.000000
vn 0.000000 -1.000000 0.000000
vn 0.000000 -1.000000 0.000000
vn 0.000000 0.000000 1.000000
vn 0.000000 0.000000 1.000000
vn 0.000000 1.000000 0.000000
vn 0.000000 1.000000 0.000000
vn 0.000000 0.000000 -1.000000
vn 0.000000 0.000000 -1.000000
vn 0.000000 -1.000000 0.000000
vn 0.000000 -1.000000 0.000000
f 1/1/1 17/2/2 3/4/3
f 3/4/3 17/2/2 18/3/4
f 3/4/5 18/3/6 5/6/7
f 5/6/7 18/3/6 19/5/8
f 5/6/9 19/5/10 7/8/11
f 7/8/11 19/5/10 20/7/12
f 7/8/13 20/7/14 1/1/15
f 1/1/15 20/7/14 17/2/16
f 2/9/17 8/10/18 4/12/19
f 4/12/19 8/10/18 6/11/20
f 7/8/21 1/1/22 5/6/23
f 5/6/23 1/1/22 3/4/24
f 9/13/25 13/14/26 10/16/27
f 10/16/27 13/14/26 14/15/28
f 11/17/29 10/16/30 15/18/31
f 15/18/31 10/16/30 14/15/32
f 12/19/33 11/17/34 16/20/35
f 16/20/35 11/17/34 15/18/36
f 9/13/37 12/19/38 13/14/39
f 13/14/39 12/19/38 16/20/40
f 13/14/26 2/9/41 14/15/28
f 14/15/28 2/9/41 4/12/42
f 15/18/31 14/15/32 6/11/43
f 6/11/43 14/15/32 4/12/44
f 16/20/35 15/18/36 8/10/45
f 8/10/45 15/18/36 6/11/46
f 13/14/39 16/20/40 2/9/47
f 2/9/47 16/20/40 8/10/48
f 17/2/2 9/13/25 18/3/4
f 18/3/4 9/13/25 10/16/27
f 19/5/8 18/3/6 11/17/29
f 11/17/29 18/3/6 10/16/30
f 20/7/12 19/5/10 12/19/33
f 12/19/33 19/5/10 11/17/34
f 17/2/16 20/7/14 9/13/37
f 9/13/37 20/7/14 12/19/38
f 21/21/49 37/22/50 23/24/51
f 23/24/51 37/22/50 38/23/52
f 23/24/53 38/23/54 25/26/55
f 25/26/55 38/23/54 39/25/56
f 25/26/57 39/25/58 27/28/59
f 27/28/59 39/25/58 40/27/60
f 27/28/61 40/27/62 21/21/63
f 21/21/63 40/27/62 37/22/64
f 22/29/65 28/30/66 24/32/67
f 24/32/67 28/30/66 26/31/68
f 27/28/69 21/21/70 25/26/71
f 25/26/71 21/21/70 23/24/72
f 29/33/73 33/34/74 30/36/75
f 30/36/75 33/34/74 34/35/76
f 31/37/77 30/36/78 35/38/79
f 35/38/79 30/36/78 34/35/80
f 32/39/81 31/37/82 36/40/83
f 36/40/83 31/37/82 35/38/84
f 29/33/85 32/39/86 33/34/87
f 33/34/87 32/39/86 36/40/88
f 33/34/74 22/29/89 34/35/76
f 34/35/76 22/29/89 24/32/90
f 35/38/79 34/35/80 26/31/91
f 26/31/91 34/35/80 24/32/92
f 36/40/83 35/38/84 28/30/93
f 28/30/93 35/38/84 26/31/94
f 33/34/87 36/40/88 22/29/95
f 22/29/95 36/40/88 28/30/96
f 37/22/50 29/33/73 38/23/52
f 38/23/52 29/33/73 30/36/75
f 39/25/56 38/23/54 31/37/77
f 31/37/77 38/23/54 30/36/78
f 40/27/60 39/25/58 32/39/81
f 32/39/81 39/25/58 31/37/82
f 37/22/64 40/27/62 29/33/85
f 29/33/85 40/27/62 32/39/86
